<svg width="681" height="120" viewBox="0 0 681 120" fill="none" xmlns="http://www.w3.org/2000/svg">
<path d="M91.875 30.125V87H80.1953V30.125H91.875ZM109.375 30.125V39.3047H62.9688V30.125H109.375ZM126.328 27V87H115.078V27H126.328ZM124.727 64.3828H121.641C121.667 61.4401 122.057 58.7318 122.812 56.2578C123.568 53.7578 124.648 51.5964 126.055 49.7734C127.461 47.9245 129.141 46.4922 131.094 45.4766C133.073 44.4609 135.26 43.9531 137.656 43.9531C139.74 43.9531 141.628 44.2526 143.32 44.8516C145.039 45.4245 146.51 46.362 147.734 47.6641C148.984 48.9401 149.948 50.6198 150.625 52.7031C151.302 54.7865 151.641 57.3125 151.641 60.2812V87H140.312V60.2031C140.312 58.3281 140.039 56.8568 139.492 55.7891C138.971 54.6953 138.203 53.9271 137.188 53.4844C136.198 53.0156 134.974 52.7812 133.516 52.7812C131.901 52.7812 130.521 53.0807 129.375 53.6797C128.255 54.2786 127.357 55.112 126.68 56.1797C126.003 57.2214 125.508 58.4453 125.195 59.8516C124.883 61.2578 124.727 62.7682 124.727 64.3828ZM179.648 87.7812C176.367 87.7812 173.424 87.2604 170.82 86.2188C168.216 85.151 166.003 83.6797 164.18 81.8047C162.383 79.9297 161.003 77.7552 160.039 75.2812C159.076 72.7812 158.594 70.125 158.594 67.3125V65.75C158.594 62.5469 159.049 59.6172 159.961 56.9609C160.872 54.3047 162.174 52 163.867 50.0469C165.586 48.0938 167.669 46.5964 170.117 45.5547C172.565 44.487 175.326 43.9531 178.398 43.9531C181.393 43.9531 184.049 44.4479 186.367 45.4375C188.685 46.4271 190.625 47.8333 192.188 49.6562C193.776 51.4792 194.974 53.6667 195.781 56.2188C196.589 58.7448 196.992 61.5573 196.992 64.6562V69.3438H163.398V61.8438H185.938V60.9844C185.938 59.4219 185.651 58.0286 185.078 56.8047C184.531 55.5547 183.698 54.5651 182.578 53.8359C181.458 53.1068 180.026 52.7422 178.281 52.7422C176.797 52.7422 175.521 53.0677 174.453 53.7188C173.385 54.3698 172.513 55.2812 171.836 56.4531C171.185 57.625 170.69 59.0052 170.352 60.5938C170.039 62.1562 169.883 63.875 169.883 65.75V67.3125C169.883 69.0052 170.117 70.5677 170.586 72C171.081 73.4323 171.771 74.6693 172.656 75.7109C173.568 76.7526 174.661 77.5599 175.938 78.1328C177.24 78.7057 178.711 78.9922 180.352 78.9922C182.383 78.9922 184.271 78.6016 186.016 77.8203C187.786 77.013 189.31 75.8021 190.586 74.1875L196.055 80.125C195.169 81.401 193.958 82.625 192.422 83.7969C190.911 84.9688 189.089 85.9323 186.953 86.6875C184.818 87.4167 182.383 87.7812 179.648 87.7812ZM229.375 30.125H239.297L253.906 71.8828L268.516 30.125H278.438L257.891 87H249.922L229.375 30.125ZM224.023 30.125H233.906L235.703 70.8281V87H224.023V30.125ZM273.906 30.125H283.828V87H272.109V70.8281L273.906 30.125ZM316.211 77.4688V58.6406C316.211 57.2865 315.99 56.1276 315.547 55.1641C315.104 54.1745 314.414 53.4062 313.477 52.8594C312.565 52.3125 311.38 52.0391 309.922 52.0391C308.672 52.0391 307.591 52.2604 306.68 52.7031C305.768 53.1198 305.065 53.7318 304.57 54.5391C304.076 55.3203 303.828 56.2448 303.828 57.3125H292.578C292.578 55.5156 292.995 53.8099 293.828 52.1953C294.661 50.5807 295.872 49.1615 297.461 47.9375C299.049 46.6875 300.938 45.7109 303.125 45.0078C305.339 44.3047 307.812 43.9531 310.547 43.9531C313.828 43.9531 316.745 44.5 319.297 45.5938C321.849 46.6875 323.854 48.3281 325.312 50.5156C326.797 52.7031 327.539 55.4375 327.539 58.7188V76.8047C327.539 79.1224 327.682 81.0234 327.969 82.5078C328.255 83.9661 328.672 85.2422 329.219 86.3359V87H317.852C317.305 85.8542 316.888 84.4219 316.602 82.7031C316.341 80.9583 316.211 79.2135 316.211 77.4688ZM317.695 61.2578L317.773 67.625H311.484C310 67.625 308.711 67.7943 307.617 68.1328C306.523 68.4714 305.625 68.9531 304.922 69.5781C304.219 70.1771 303.698 70.8802 303.359 71.6875C303.047 72.4948 302.891 73.3802 302.891 74.3438C302.891 75.3073 303.112 76.1797 303.555 76.9609C303.997 77.7161 304.635 78.3151 305.469 78.7578C306.302 79.1745 307.279 79.3828 308.398 79.3828C310.091 79.3828 311.562 79.0443 312.812 78.3672C314.062 77.6901 315.026 76.8568 315.703 75.8672C316.406 74.8776 316.771 73.9401 316.797 73.0547L319.766 77.8203C319.349 78.888 318.776 79.9948 318.047 81.1406C317.344 82.2865 316.445 83.3672 315.352 84.3828C314.258 85.3724 312.943 86.1927 311.406 86.8438C309.87 87.4688 308.047 87.7812 305.938 87.7812C303.255 87.7812 300.82 87.2474 298.633 86.1797C296.471 85.0859 294.753 83.5885 293.477 81.6875C292.227 79.7604 291.602 77.5729 291.602 75.125C291.602 72.9115 292.018 70.9453 292.852 69.2266C293.685 67.5078 294.909 66.0625 296.523 64.8906C298.164 63.6927 300.208 62.7943 302.656 62.1953C305.104 61.5703 307.943 61.2578 311.172 61.2578H317.695ZM362.969 44.7344H373.164V85.5938C373.164 89.4479 372.305 92.7161 370.586 95.3984C368.893 98.1068 366.523 100.151 363.477 101.531C360.43 102.938 356.888 103.641 352.852 103.641C351.081 103.641 349.206 103.406 347.227 102.938C345.273 102.469 343.398 101.74 341.602 100.75C339.831 99.7604 338.346 98.5104 337.148 97L342.109 90.3594C343.411 91.8698 344.922 93.0417 346.641 93.875C348.359 94.7344 350.26 95.1641 352.344 95.1641C354.375 95.1641 356.094 94.7865 357.5 94.0312C358.906 93.3021 359.987 92.2214 360.742 90.7891C361.497 89.3828 361.875 87.6771 361.875 85.6719V54.5L362.969 44.7344ZM334.531 66.375V65.5547C334.531 62.3255 334.922 59.3958 335.703 56.7656C336.51 54.1094 337.643 51.8307 339.102 49.9297C340.586 48.0286 342.383 46.5573 344.492 45.5156C346.602 44.474 348.984 43.9531 351.641 43.9531C354.453 43.9531 356.81 44.474 358.711 45.5156C360.612 46.5573 362.174 48.0417 363.398 49.9688C364.622 51.8698 365.573 54.1224 366.25 56.7266C366.953 59.3047 367.5 62.1302 367.891 65.2031V67C367.5 69.9427 366.914 72.6771 366.133 75.2031C365.352 77.7292 364.323 79.9427 363.047 81.8438C361.771 83.7188 360.182 85.1771 358.281 86.2188C356.406 87.2604 354.167 87.7812 351.562 87.7812C348.958 87.7812 346.602 87.2474 344.492 86.1797C342.409 85.112 340.625 83.6146 339.141 81.6875C337.656 79.7604 336.51 77.4948 335.703 74.8906C334.922 72.2865 334.531 69.4479 334.531 66.375ZM345.781 65.5547V66.375C345.781 68.1198 345.951 69.7474 346.289 71.2578C346.628 72.7682 347.148 74.1094 347.852 75.2812C348.581 76.4271 349.479 77.3255 350.547 77.9766C351.641 78.6016 352.93 78.9141 354.414 78.9141C356.471 78.9141 358.151 78.4844 359.453 77.625C360.755 76.7396 361.732 75.5286 362.383 73.9922C363.034 72.4557 363.411 70.6849 363.516 68.6797V63.5625C363.464 61.9219 363.242 60.4505 362.852 59.1484C362.461 57.8203 361.914 56.6875 361.211 55.75C360.508 54.8125 359.596 54.0833 358.477 53.5625C357.357 53.0417 356.029 52.7812 354.492 52.7812C353.008 52.7812 351.719 53.1198 350.625 53.7969C349.557 54.4479 348.659 55.3464 347.93 56.4922C347.227 57.638 346.693 58.9922 346.328 60.5547C345.964 62.0911 345.781 63.7578 345.781 65.5547ZM393.789 44.7344V87H382.5V44.7344H393.789ZM381.797 33.7188C381.797 32.0781 382.37 30.724 383.516 29.6562C384.661 28.5885 386.198 28.0547 388.125 28.0547C390.026 28.0547 391.549 28.5885 392.695 29.6562C393.867 30.724 394.453 32.0781 394.453 33.7188C394.453 35.3594 393.867 36.7135 392.695 37.7812C391.549 38.849 390.026 39.3828 388.125 39.3828C386.198 39.3828 384.661 38.849 383.516 37.7812C382.37 36.7135 381.797 35.3594 381.797 33.7188ZM420.547 78.9922C421.927 78.9922 423.151 78.7318 424.219 78.2109C425.286 77.6641 426.12 76.9089 426.719 75.9453C427.344 74.9557 427.669 73.7969 427.695 72.4688H438.281C438.255 75.4375 437.461 78.0807 435.898 80.3984C434.336 82.6901 432.24 84.5 429.609 85.8281C426.979 87.1302 424.036 87.7812 420.781 87.7812C417.5 87.7812 414.635 87.2344 412.188 86.1406C409.766 85.0469 407.747 83.5365 406.133 81.6094C404.518 79.6562 403.307 77.3906 402.5 74.8125C401.693 72.2083 401.289 69.4219 401.289 66.4531V65.3203C401.289 62.3255 401.693 59.5391 402.5 56.9609C403.307 54.3568 404.518 52.0911 406.133 50.1641C407.747 48.2109 409.766 46.6875 412.188 45.5938C414.609 44.5 417.448 43.9531 420.703 43.9531C424.167 43.9531 427.201 44.6172 429.805 45.9453C432.435 47.2734 434.492 49.1745 435.977 51.6484C437.487 54.0964 438.255 57 438.281 60.3594H427.695C427.669 58.9531 427.37 57.6771 426.797 56.5312C426.25 55.3854 425.443 54.474 424.375 53.7969C423.333 53.0938 422.044 52.7422 420.508 52.7422C418.867 52.7422 417.526 53.0938 416.484 53.7969C415.443 54.474 414.635 55.4115 414.062 56.6094C413.49 57.7812 413.086 59.1224 412.852 60.6328C412.643 62.1172 412.539 63.6797 412.539 65.3203V66.4531C412.539 68.0938 412.643 69.6693 412.852 71.1797C413.06 72.6901 413.451 74.0312 414.023 75.2031C414.622 76.375 415.443 77.2995 416.484 77.9766C417.526 78.6536 418.88 78.9922 420.547 78.9922ZM495.039 72.1172C495.039 71.1016 494.883 70.1901 494.57 69.3828C494.284 68.5495 493.737 67.7943 492.93 67.1172C492.122 66.4141 490.99 65.724 489.531 65.0469C488.073 64.3698 486.185 63.6667 483.867 62.9375C481.289 62.1042 478.841 61.1667 476.523 60.125C474.232 59.0833 472.201 57.8724 470.43 56.4922C468.685 55.0859 467.305 53.4583 466.289 51.6094C465.299 49.7604 464.805 47.612 464.805 45.1641C464.805 42.7943 465.326 40.6458 466.367 38.7188C467.409 36.7656 468.867 35.099 470.742 33.7188C472.617 32.3125 474.831 31.2318 477.383 30.4766C479.961 29.7214 482.786 29.3438 485.859 29.3438C490.052 29.3438 493.711 30.099 496.836 31.6094C499.961 33.1198 502.383 35.1901 504.102 37.8203C505.846 40.4505 506.719 43.4583 506.719 46.8438H495.078C495.078 45.1771 494.727 43.7188 494.023 42.4688C493.346 41.1927 492.305 40.1901 490.898 39.4609C489.518 38.7318 487.773 38.3672 485.664 38.3672C483.633 38.3672 481.94 38.6797 480.586 39.3047C479.232 39.9036 478.216 40.724 477.539 41.7656C476.862 42.7812 476.523 43.9271 476.523 45.2031C476.523 46.1667 476.758 47.0391 477.227 47.8203C477.721 48.6016 478.451 49.3307 479.414 50.0078C480.378 50.6849 481.562 51.3229 482.969 51.9219C484.375 52.5208 486.003 53.1068 487.852 53.6797C490.951 54.6172 493.672 55.6719 496.016 56.8438C498.385 58.0156 500.365 59.3307 501.953 60.7891C503.542 62.2474 504.74 63.901 505.547 65.75C506.354 67.599 506.758 69.6953 506.758 72.0391C506.758 74.513 506.276 76.7266 505.312 78.6797C504.349 80.6328 502.956 82.2865 501.133 83.6406C499.31 84.9948 497.135 86.0234 494.609 86.7266C492.083 87.4297 489.258 87.7812 486.133 87.7812C483.32 87.7812 480.547 87.4167 477.812 86.6875C475.078 85.9323 472.591 84.7995 470.352 83.2891C468.138 81.7786 466.367 79.8516 465.039 77.5078C463.711 75.1641 463.047 72.3906 463.047 69.1875H474.805C474.805 70.9583 475.078 72.4557 475.625 73.6797C476.172 74.9036 476.94 75.8932 477.93 76.6484C478.945 77.4036 480.143 77.9505 481.523 78.2891C482.93 78.6276 484.466 78.7969 486.133 78.7969C488.164 78.7969 489.831 78.5104 491.133 77.9375C492.461 77.3646 493.438 76.5703 494.062 75.5547C494.714 74.5391 495.039 73.3932 495.039 72.1172ZM525.898 27V87H514.609V27H525.898ZM558.008 77.4688V58.6406C558.008 57.2865 557.786 56.1276 557.344 55.1641C556.901 54.1745 556.211 53.4062 555.273 52.8594C554.362 52.3125 553.177 52.0391 551.719 52.0391C550.469 52.0391 549.388 52.2604 548.477 52.7031C547.565 53.1198 546.862 53.7318 546.367 54.5391C545.872 55.3203 545.625 56.2448 545.625 57.3125H534.375C534.375 55.5156 534.792 53.8099 535.625 52.1953C536.458 50.5807 537.669 49.1615 539.258 47.9375C540.846 46.6875 542.734 45.7109 544.922 45.0078C547.135 44.3047 549.609 43.9531 552.344 43.9531C555.625 43.9531 558.542 44.5 561.094 45.5938C563.646 46.6875 565.651 48.3281 567.109 50.5156C568.594 52.7031 569.336 55.4375 569.336 58.7188V76.8047C569.336 79.1224 569.479 81.0234 569.766 82.5078C570.052 83.9661 570.469 85.2422 571.016 86.3359V87H559.648C559.102 85.8542 558.685 84.4219 558.398 82.7031C558.138 80.9583 558.008 79.2135 558.008 77.4688ZM559.492 61.2578L559.57 67.625H553.281C551.797 67.625 550.508 67.7943 549.414 68.1328C548.32 68.4714 547.422 68.9531 546.719 69.5781C546.016 70.1771 545.495 70.8802 545.156 71.6875C544.844 72.4948 544.688 73.3802 544.688 74.3438C544.688 75.3073 544.909 76.1797 545.352 76.9609C545.794 77.7161 546.432 78.3151 547.266 78.7578C548.099 79.1745 549.076 79.3828 550.195 79.3828C551.888 79.3828 553.359 79.0443 554.609 78.3672C555.859 77.6901 556.823 76.8568 557.5 75.8672C558.203 74.8776 558.568 73.9401 558.594 73.0547L561.562 77.8203C561.146 78.888 560.573 79.9948 559.844 81.1406C559.141 82.2865 558.242 83.3672 557.148 84.3828C556.055 85.3724 554.74 86.1927 553.203 86.8438C551.667 87.4688 549.844 87.7812 547.734 87.7812C545.052 87.7812 542.617 87.2474 540.43 86.1797C538.268 85.0859 536.549 83.5885 535.273 81.6875C534.023 79.7604 533.398 77.5729 533.398 75.125C533.398 72.9115 533.815 70.9453 534.648 69.2266C535.482 67.5078 536.706 66.0625 538.32 64.8906C539.961 63.6927 542.005 62.7943 544.453 62.1953C546.901 61.5703 549.74 61.2578 552.969 61.2578H559.492ZM578.008 27H589.258V77.3125L588.125 87H578.008V27ZM616.016 65.4375V66.2578C616.016 69.4089 615.677 72.2995 615 74.9297C614.349 77.5599 613.333 79.8385 611.953 81.7656C610.573 83.6667 608.854 85.151 606.797 86.2188C604.766 87.2604 602.37 87.7812 599.609 87.7812C597.031 87.7812 594.792 87.2604 592.891 86.2188C591.016 85.1771 589.44 83.7057 588.164 81.8047C586.888 79.9036 585.859 77.6771 585.078 75.125C584.297 72.5729 583.711 69.7865 583.32 66.7656V64.9688C583.711 61.9479 584.297 59.1615 585.078 56.6094C585.859 54.0573 586.888 51.8307 588.164 49.9297C589.44 48.0286 591.016 46.5573 592.891 45.5156C594.766 44.474 596.979 43.9531 599.531 43.9531C602.318 43.9531 604.74 44.487 606.797 45.5547C608.88 46.5964 610.599 48.0807 611.953 50.0078C613.333 51.9089 614.349 54.1745 615 56.8047C615.677 59.4089 616.016 62.2865 616.016 65.4375ZM604.766 66.2578V65.4375C604.766 63.7188 604.635 62.1042 604.375 60.5938C604.141 59.0573 603.724 57.7161 603.125 56.5703C602.526 55.3984 601.706 54.474 600.664 53.7969C599.648 53.1198 598.333 52.7812 596.719 52.7812C595.182 52.7812 593.88 53.0417 592.812 53.5625C591.745 54.0833 590.859 54.8125 590.156 55.75C589.479 56.6875 588.971 57.8073 588.633 59.1094C588.294 60.3854 588.086 61.7917 588.008 63.3281V68.4453C588.086 70.5026 588.424 72.3255 589.023 73.9141C589.648 75.4766 590.586 76.7135 591.836 77.625C593.112 78.5104 594.766 78.9531 596.797 78.9531C598.385 78.9531 599.701 78.6406 600.742 78.0156C601.784 77.3906 602.591 76.5052 603.164 75.3594C603.763 74.2135 604.18 72.8724 604.414 71.3359C604.648 69.7734 604.766 68.0807 604.766 66.2578Z" fill="#CC2A41"/>
</svg>
