<svg width="555" height="77" viewBox="0 0 555 77" fill="none" xmlns="http://www.w3.org/2000/svg">
<path d="M29.875 3.125V60H18.1953V3.125H29.875ZM47.375 3.125V12.3047H0.96875V3.125H47.375ZM64.3281 0V60H53.0781V0H64.3281ZM62.7266 37.3828H59.6406C59.6667 34.4401 60.0573 31.7318 60.8125 29.2578C61.5677 26.7578 62.6484 24.5964 64.0547 22.7734C65.4609 20.9245 67.1406 19.4922 69.0938 18.4766C71.0729 17.4609 73.2604 16.9531 75.6562 16.9531C77.7396 16.9531 79.6276 17.2526 81.3203 17.8516C83.0391 18.4245 84.5104 19.362 85.7344 20.6641C86.9844 21.9401 87.9479 23.6198 88.625 25.7031C89.3021 27.7865 89.6406 30.3125 89.6406 33.2812V60H78.3125V33.2031C78.3125 31.3281 78.0391 29.8568 77.4922 28.7891C76.9714 27.6953 76.2031 26.9271 75.1875 26.4844C74.1979 26.0156 72.974 25.7812 71.5156 25.7812C69.901 25.7812 68.5208 26.0807 67.375 26.6797C66.2552 27.2786 65.3568 28.112 64.6797 29.1797C64.0026 30.2214 63.5078 31.4453 63.1953 32.8516C62.8828 34.2578 62.7266 35.7682 62.7266 37.3828ZM117.648 60.7812C114.367 60.7812 111.424 60.2604 108.82 59.2188C106.216 58.151 104.003 56.6797 102.18 54.8047C100.383 52.9297 99.0026 50.7552 98.0391 48.2812C97.0755 45.7812 96.5938 43.125 96.5938 40.3125V38.75C96.5938 35.5469 97.0495 32.6172 97.9609 29.9609C98.8724 27.3047 100.174 25 101.867 23.0469C103.586 21.0938 105.669 19.5964 108.117 18.5547C110.565 17.487 113.326 16.9531 116.398 16.9531C119.393 16.9531 122.049 17.4479 124.367 18.4375C126.685 19.4271 128.625 20.8333 130.188 22.6562C131.776 24.4792 132.974 26.6667 133.781 29.2188C134.589 31.7448 134.992 34.5573 134.992 37.6562V42.3438H101.398V34.8438H123.938V33.9844C123.938 32.4219 123.651 31.0286 123.078 29.8047C122.531 28.5547 121.698 27.5651 120.578 26.8359C119.458 26.1068 118.026 25.7422 116.281 25.7422C114.797 25.7422 113.521 26.0677 112.453 26.7188C111.385 27.3698 110.513 28.2812 109.836 29.4531C109.185 30.625 108.69 32.0052 108.352 33.5938C108.039 35.1562 107.883 36.875 107.883 38.75V40.3125C107.883 42.0052 108.117 43.5677 108.586 45C109.081 46.4323 109.771 47.6693 110.656 48.7109C111.568 49.7526 112.661 50.5599 113.938 51.1328C115.24 51.7057 116.711 51.9922 118.352 51.9922C120.383 51.9922 122.271 51.6016 124.016 50.8203C125.786 50.013 127.31 48.8021 128.586 47.1875L134.055 53.125C133.169 54.401 131.958 55.625 130.422 56.7969C128.911 57.9688 127.089 58.9323 124.953 59.6875C122.818 60.4167 120.383 60.7812 117.648 60.7812ZM167.375 3.125H177.297L191.906 44.8828L206.516 3.125H216.438L195.891 60H187.922L167.375 3.125ZM162.023 3.125H171.906L173.703 43.8281V60H162.023V3.125ZM211.906 3.125H221.828V60H210.109V43.8281L211.906 3.125ZM254.211 50.4688V31.6406C254.211 30.2865 253.99 29.1276 253.547 28.1641C253.104 27.1745 252.414 26.4062 251.477 25.8594C250.565 25.3125 249.38 25.0391 247.922 25.0391C246.672 25.0391 245.591 25.2604 244.68 25.7031C243.768 26.1198 243.065 26.7318 242.57 27.5391C242.076 28.3203 241.828 29.2448 241.828 30.3125H230.578C230.578 28.5156 230.995 26.8099 231.828 25.1953C232.661 23.5807 233.872 22.1615 235.461 20.9375C237.049 19.6875 238.938 18.7109 241.125 18.0078C243.339 17.3047 245.812 16.9531 248.547 16.9531C251.828 16.9531 254.745 17.5 257.297 18.5938C259.849 19.6875 261.854 21.3281 263.312 23.5156C264.797 25.7031 265.539 28.4375 265.539 31.7188V49.8047C265.539 52.1224 265.682 54.0234 265.969 55.5078C266.255 56.9661 266.672 58.2422 267.219 59.3359V60H255.852C255.305 58.8542 254.888 57.4219 254.602 55.7031C254.341 53.9583 254.211 52.2135 254.211 50.4688ZM255.695 34.2578L255.773 40.625H249.484C248 40.625 246.711 40.7943 245.617 41.1328C244.523 41.4714 243.625 41.9531 242.922 42.5781C242.219 43.1771 241.698 43.8802 241.359 44.6875C241.047 45.4948 240.891 46.3802 240.891 47.3438C240.891 48.3073 241.112 49.1797 241.555 49.9609C241.997 50.7161 242.635 51.3151 243.469 51.7578C244.302 52.1745 245.279 52.3828 246.398 52.3828C248.091 52.3828 249.562 52.0443 250.812 51.3672C252.062 50.6901 253.026 49.8568 253.703 48.8672C254.406 47.8776 254.771 46.9401 254.797 46.0547L257.766 50.8203C257.349 51.888 256.776 52.9948 256.047 54.1406C255.344 55.2865 254.445 56.3672 253.352 57.3828C252.258 58.3724 250.943 59.1927 249.406 59.8438C247.87 60.4688 246.047 60.7812 243.938 60.7812C241.255 60.7812 238.82 60.2474 236.633 59.1797C234.471 58.0859 232.753 56.5885 231.477 54.6875C230.227 52.7604 229.602 50.5729 229.602 48.125C229.602 45.9115 230.018 43.9453 230.852 42.2266C231.685 40.5078 232.909 39.0625 234.523 37.8906C236.164 36.6927 238.208 35.7943 240.656 35.1953C243.104 34.5703 245.943 34.2578 249.172 34.2578H255.695ZM300.969 17.7344H311.164V58.5938C311.164 62.4479 310.305 65.7161 308.586 68.3984C306.893 71.1068 304.523 73.151 301.477 74.5312C298.43 75.9375 294.888 76.6406 290.852 76.6406C289.081 76.6406 287.206 76.4062 285.227 75.9375C283.273 75.4688 281.398 74.7396 279.602 73.75C277.831 72.7604 276.346 71.5104 275.148 70L280.109 63.3594C281.411 64.8698 282.922 66.0417 284.641 66.875C286.359 67.7344 288.26 68.1641 290.344 68.1641C292.375 68.1641 294.094 67.7865 295.5 67.0312C296.906 66.3021 297.987 65.2214 298.742 63.7891C299.497 62.3828 299.875 60.6771 299.875 58.6719V27.5L300.969 17.7344ZM272.531 39.375V38.5547C272.531 35.3255 272.922 32.3958 273.703 29.7656C274.51 27.1094 275.643 24.8307 277.102 22.9297C278.586 21.0286 280.383 19.5573 282.492 18.5156C284.602 17.474 286.984 16.9531 289.641 16.9531C292.453 16.9531 294.81 17.474 296.711 18.5156C298.612 19.5573 300.174 21.0417 301.398 22.9688C302.622 24.8698 303.573 27.1224 304.25 29.7266C304.953 32.3047 305.5 35.1302 305.891 38.2031V40C305.5 42.9427 304.914 45.6771 304.133 48.2031C303.352 50.7292 302.323 52.9427 301.047 54.8438C299.771 56.7188 298.182 58.1771 296.281 59.2188C294.406 60.2604 292.167 60.7812 289.562 60.7812C286.958 60.7812 284.602 60.2474 282.492 59.1797C280.409 58.112 278.625 56.6146 277.141 54.6875C275.656 52.7604 274.51 50.4948 273.703 47.8906C272.922 45.2865 272.531 42.4479 272.531 39.375ZM283.781 38.5547V39.375C283.781 41.1198 283.951 42.7474 284.289 44.2578C284.628 45.7682 285.148 47.1094 285.852 48.2812C286.581 49.4271 287.479 50.3255 288.547 50.9766C289.641 51.6016 290.93 51.9141 292.414 51.9141C294.471 51.9141 296.151 51.4844 297.453 50.625C298.755 49.7396 299.732 48.5286 300.383 46.9922C301.034 45.4557 301.411 43.6849 301.516 41.6797V36.5625C301.464 34.9219 301.242 33.4505 300.852 32.1484C300.461 30.8203 299.914 29.6875 299.211 28.75C298.508 27.8125 297.596 27.0833 296.477 26.5625C295.357 26.0417 294.029 25.7812 292.492 25.7812C291.008 25.7812 289.719 26.1198 288.625 26.7969C287.557 27.4479 286.659 28.3464 285.93 29.4922C285.227 30.638 284.693 31.9922 284.328 33.5547C283.964 35.0911 283.781 36.7578 283.781 38.5547ZM331.789 17.7344V60H320.5V17.7344H331.789ZM319.797 6.71875C319.797 5.07812 320.37 3.72396 321.516 2.65625C322.661 1.58854 324.198 1.05469 326.125 1.05469C328.026 1.05469 329.549 1.58854 330.695 2.65625C331.867 3.72396 332.453 5.07812 332.453 6.71875C332.453 8.35938 331.867 9.71354 330.695 10.7812C329.549 11.849 328.026 12.3828 326.125 12.3828C324.198 12.3828 322.661 11.849 321.516 10.7812C320.37 9.71354 319.797 8.35938 319.797 6.71875ZM358.547 51.9922C359.927 51.9922 361.151 51.7318 362.219 51.2109C363.286 50.6641 364.12 49.9089 364.719 48.9453C365.344 47.9557 365.669 46.7969 365.695 45.4688H376.281C376.255 48.4375 375.461 51.0807 373.898 53.3984C372.336 55.6901 370.24 57.5 367.609 58.8281C364.979 60.1302 362.036 60.7812 358.781 60.7812C355.5 60.7812 352.635 60.2344 350.188 59.1406C347.766 58.0469 345.747 56.5365 344.133 54.6094C342.518 52.6562 341.307 50.3906 340.5 47.8125C339.693 45.2083 339.289 42.4219 339.289 39.4531V38.3203C339.289 35.3255 339.693 32.5391 340.5 29.9609C341.307 27.3568 342.518 25.0911 344.133 23.1641C345.747 21.2109 347.766 19.6875 350.188 18.5938C352.609 17.5 355.448 16.9531 358.703 16.9531C362.167 16.9531 365.201 17.6172 367.805 18.9453C370.435 20.2734 372.492 22.1745 373.977 24.6484C375.487 27.0964 376.255 30 376.281 33.3594H365.695C365.669 31.9531 365.37 30.6771 364.797 29.5312C364.25 28.3854 363.443 27.474 362.375 26.7969C361.333 26.0938 360.044 25.7422 358.508 25.7422C356.867 25.7422 355.526 26.0938 354.484 26.7969C353.443 27.474 352.635 28.4115 352.062 29.6094C351.49 30.7812 351.086 32.1224 350.852 33.6328C350.643 35.1172 350.539 36.6797 350.539 38.3203V39.4531C350.539 41.0938 350.643 42.6693 350.852 44.1797C351.06 45.6901 351.451 47.0312 352.023 48.2031C352.622 49.375 353.443 50.2995 354.484 50.9766C355.526 51.6536 356.88 51.9922 358.547 51.9922ZM433.039 45.1172C433.039 44.1016 432.883 43.1901 432.57 42.3828C432.284 41.5495 431.737 40.7943 430.93 40.1172C430.122 39.4141 428.99 38.724 427.531 38.0469C426.073 37.3698 424.185 36.6667 421.867 35.9375C419.289 35.1042 416.841 34.1667 414.523 33.125C412.232 32.0833 410.201 30.8724 408.43 29.4922C406.685 28.0859 405.305 26.4583 404.289 24.6094C403.299 22.7604 402.805 20.612 402.805 18.1641C402.805 15.7943 403.326 13.6458 404.367 11.7188C405.409 9.76562 406.867 8.09896 408.742 6.71875C410.617 5.3125 412.831 4.23177 415.383 3.47656C417.961 2.72135 420.786 2.34375 423.859 2.34375C428.052 2.34375 431.711 3.09896 434.836 4.60938C437.961 6.11979 440.383 8.1901 442.102 10.8203C443.846 13.4505 444.719 16.4583 444.719 19.8438H433.078C433.078 18.1771 432.727 16.7188 432.023 15.4688C431.346 14.1927 430.305 13.1901 428.898 12.4609C427.518 11.7318 425.773 11.3672 423.664 11.3672C421.633 11.3672 419.94 11.6797 418.586 12.3047C417.232 12.9036 416.216 13.724 415.539 14.7656C414.862 15.7812 414.523 16.9271 414.523 18.2031C414.523 19.1667 414.758 20.0391 415.227 20.8203C415.721 21.6016 416.451 22.3307 417.414 23.0078C418.378 23.6849 419.562 24.3229 420.969 24.9219C422.375 25.5208 424.003 26.1068 425.852 26.6797C428.951 27.6172 431.672 28.6719 434.016 29.8438C436.385 31.0156 438.365 32.3307 439.953 33.7891C441.542 35.2474 442.74 36.901 443.547 38.75C444.354 40.599 444.758 42.6953 444.758 45.0391C444.758 47.513 444.276 49.7266 443.312 51.6797C442.349 53.6328 440.956 55.2865 439.133 56.6406C437.31 57.9948 435.135 59.0234 432.609 59.7266C430.083 60.4297 427.258 60.7812 424.133 60.7812C421.32 60.7812 418.547 60.4167 415.812 59.6875C413.078 58.9323 410.591 57.7995 408.352 56.2891C406.138 54.7786 404.367 52.8516 403.039 50.5078C401.711 48.1641 401.047 45.3906 401.047 42.1875H412.805C412.805 43.9583 413.078 45.4557 413.625 46.6797C414.172 47.9036 414.94 48.8932 415.93 49.6484C416.945 50.4036 418.143 50.9505 419.523 51.2891C420.93 51.6276 422.466 51.7969 424.133 51.7969C426.164 51.7969 427.831 51.5104 429.133 50.9375C430.461 50.3646 431.438 49.5703 432.062 48.5547C432.714 47.5391 433.039 46.3932 433.039 45.1172ZM463.898 0V60H452.609V0H463.898ZM496.008 50.4688V31.6406C496.008 30.2865 495.786 29.1276 495.344 28.1641C494.901 27.1745 494.211 26.4062 493.273 25.8594C492.362 25.3125 491.177 25.0391 489.719 25.0391C488.469 25.0391 487.388 25.2604 486.477 25.7031C485.565 26.1198 484.862 26.7318 484.367 27.5391C483.872 28.3203 483.625 29.2448 483.625 30.3125H472.375C472.375 28.5156 472.792 26.8099 473.625 25.1953C474.458 23.5807 475.669 22.1615 477.258 20.9375C478.846 19.6875 480.734 18.7109 482.922 18.0078C485.135 17.3047 487.609 16.9531 490.344 16.9531C493.625 16.9531 496.542 17.5 499.094 18.5938C501.646 19.6875 503.651 21.3281 505.109 23.5156C506.594 25.7031 507.336 28.4375 507.336 31.7188V49.8047C507.336 52.1224 507.479 54.0234 507.766 55.5078C508.052 56.9661 508.469 58.2422 509.016 59.3359V60H497.648C497.102 58.8542 496.685 57.4219 496.398 55.7031C496.138 53.9583 496.008 52.2135 496.008 50.4688ZM497.492 34.2578L497.57 40.625H491.281C489.797 40.625 488.508 40.7943 487.414 41.1328C486.32 41.4714 485.422 41.9531 484.719 42.5781C484.016 43.1771 483.495 43.8802 483.156 44.6875C482.844 45.4948 482.688 46.3802 482.688 47.3438C482.688 48.3073 482.909 49.1797 483.352 49.9609C483.794 50.7161 484.432 51.3151 485.266 51.7578C486.099 52.1745 487.076 52.3828 488.195 52.3828C489.888 52.3828 491.359 52.0443 492.609 51.3672C493.859 50.6901 494.823 49.8568 495.5 48.8672C496.203 47.8776 496.568 46.9401 496.594 46.0547L499.562 50.8203C499.146 51.888 498.573 52.9948 497.844 54.1406C497.141 55.2865 496.242 56.3672 495.148 57.3828C494.055 58.3724 492.74 59.1927 491.203 59.8438C489.667 60.4688 487.844 60.7812 485.734 60.7812C483.052 60.7812 480.617 60.2474 478.43 59.1797C476.268 58.0859 474.549 56.5885 473.273 54.6875C472.023 52.7604 471.398 50.5729 471.398 48.125C471.398 45.9115 471.815 43.9453 472.648 42.2266C473.482 40.5078 474.706 39.0625 476.32 37.8906C477.961 36.6927 480.005 35.7943 482.453 35.1953C484.901 34.5703 487.74 34.2578 490.969 34.2578H497.492ZM516.008 0H527.258V50.3125L526.125 60H516.008V0ZM554.016 38.4375V39.2578C554.016 42.4089 553.677 45.2995 553 47.9297C552.349 50.5599 551.333 52.8385 549.953 54.7656C548.573 56.6667 546.854 58.151 544.797 59.2188C542.766 60.2604 540.37 60.7812 537.609 60.7812C535.031 60.7812 532.792 60.2604 530.891 59.2188C529.016 58.1771 527.44 56.7057 526.164 54.8047C524.888 52.9036 523.859 50.6771 523.078 48.125C522.297 45.5729 521.711 42.7865 521.32 39.7656V37.9688C521.711 34.9479 522.297 32.1615 523.078 29.6094C523.859 27.0573 524.888 24.8307 526.164 22.9297C527.44 21.0286 529.016 19.5573 530.891 18.5156C532.766 17.474 534.979 16.9531 537.531 16.9531C540.318 16.9531 542.74 17.487 544.797 18.5547C546.88 19.5964 548.599 21.0807 549.953 23.0078C551.333 24.9089 552.349 27.1745 553 29.8047C553.677 32.4089 554.016 35.2865 554.016 38.4375ZM542.766 39.2578V38.4375C542.766 36.7188 542.635 35.1042 542.375 33.5938C542.141 32.0573 541.724 30.7161 541.125 29.5703C540.526 28.3984 539.706 27.474 538.664 26.7969C537.648 26.1198 536.333 25.7812 534.719 25.7812C533.182 25.7812 531.88 26.0417 530.812 26.5625C529.745 27.0833 528.859 27.8125 528.156 28.75C527.479 29.6875 526.971 30.8073 526.633 32.1094C526.294 33.3854 526.086 34.7917 526.008 36.3281V41.4453C526.086 43.5026 526.424 45.3255 527.023 46.9141C527.648 48.4766 528.586 49.7135 529.836 50.625C531.112 51.5104 532.766 51.9531 534.797 51.9531C536.385 51.9531 537.701 51.6406 538.742 51.0156C539.784 50.3906 540.591 49.5052 541.164 48.3594C541.763 47.2135 542.18 45.8724 542.414 44.3359C542.648 42.7734 542.766 41.0807 542.766 39.2578Z" fill="#CC2A41"/>
</svg>
